<?xml version="1.0" encoding="UTF-8"?>
<svg width="18px" height="19px" viewBox="0 0 18 19" version="1.1" xmlns="http://www.w3.org/2000/svg" xmlns:xlink="http://www.w3.org/1999/xlink">
    <title>previous</title>
    <defs>
        <rect id="path-1" x="-1.77635684e-15" y="0.008712" width="18" height="18"></rect>
    </defs>
    <g id="Page-1" stroke="none" stroke-width="1" fill="none" fill-rule="evenodd">
        <g id="previous">
            <mask id="mask-2" fill="white">
                <use xlink:href="#path-1"></use>
            </mask>
            <g id="Rectangle" transform="translate(9.000000, 9.008712) rotate(180.000000) translate(-9.000000, -9.008712) "></g>
            <path d="M17,9.50444933 C17,9.37095321 16.9450139,9.24344198 16.8534951,9.14743449 L11.9039977,4.14793843 C11.7084916,3.95043733 11.3919994,3.95093607 11.196992,4.14793843 C11.0014858,4.34494079 11.0014858,4.66492417 11.196992,4.86192653 L15.2934774,8.99943335 L1.49998701,8.99943335 C1.22401746,8.99947491 1,9.22544577 1,9.50444933 C1,9.78345289 1.22401746,10.0094653 1.49998701,10.0094653 L15.2929787,10.0094653 L11.196992,14.1469722 C11.0014858,14.3439745 11.0019846,14.6639579 11.196992,14.8609603 C11.3924981,15.0579626 11.7089903,15.0579626 11.9039977,14.8609603 L16.8534951,9.86146416 C16.9469673,9.76695291 16.9985038,9.63694796 17,9.50444933 Z" id="path-1" fill="#222222" fill-rule="nonzero" mask="url(#mask-2)" transform="translate(9.000000, 9.504356) rotate(180.000000) translate(-9.000000, -9.504356) "></path>
        </g>
    </g>
</svg>