<?xml version="1.0" encoding="UTF-8"?>
<svg width="18px" height="18px" viewBox="0 0 18 18" version="1.1" xmlns="http://www.w3.org/2000/svg" xmlns:xlink="http://www.w3.org/1999/xlink">
    <title>icon/facebook</title>
    <defs>
        <path d="M10.3105469,18 L7.42800902,18 C6.9465332,18 6.55487061,17.6083374 6.55487061,17.1268616 L6.55487061,10.6251526 L4.87313845,10.6251526 C4.3916626,10.6251526 4,10.2333527 4,9.75201416 L4,6.96601867 C4,6.48454286 4.3916626,6.09288026 4.87313845,6.09288026 L6.55487061,6.09288026 L6.55487061,4.69775391 C6.55487061,3.31443787 6.98924256,2.13752746 7.81088259,1.29446409 C8.63623047,0.447555551 9.7896576,0 11.1464691,0 L13.3448334,0.00357053906 C13.8254852,0.00439453125 14.2164612,0.396057129 14.2164612,0.876708984 L14.2164612,3.46343994 C14.2164612,3.94491579 13.8249359,4.33657835 13.3435974,4.33657835 L11.8634644,4.3371277 C11.4120636,4.3371277 11.2971191,4.42762755 11.2725372,4.45536805 C11.2320252,4.50137327 11.1838226,4.63142394 11.1838226,4.99053955 L11.1838226,6.09274294 L13.2323608,6.09274294 C13.3865814,6.09274294 13.5359955,6.13078309 13.6643982,6.20246886 C13.941391,6.35723877 14.1136017,6.64988709 14.1136017,6.96615602 L14.112503,9.75215148 C14.112503,10.2333527 13.7208404,10.6250153 13.2393646,10.6250153 L11.1838226,10.6250153 L11.1838226,17.1268616 C11.1838226,17.6083374 10.7920227,18 10.3105469,18 L10.3105469,18 Z M7.61010742,16.9447632 L10.1284485,16.9447632 L10.1284485,10.1527405 C10.1284485,9.83125304 10.3900604,9.56977843 10.7114105,9.56977843 L13.0572662,9.56977843 L13.0582275,7.14811707 L10.7112732,7.14811707 C10.3899231,7.14811707 10.1284485,6.88664246 10.1284485,6.56515505 L10.1284485,4.99053955 C10.1284485,4.57827757 10.1703339,4.10943604 10.4815216,3.75704958 C10.8575287,3.33105469 11.4501037,3.28189085 11.8631897,3.28189085 L13.1612244,3.28134157 L13.1612244,1.05853271 L11.1456451,1.05523682 C8.96513368,1.05523682 7.61010742,2.4510498 7.61010742,4.69775391 L7.61010742,6.56515505 C7.61010742,6.88650511 7.34863281,7.14811707 7.02728271,7.14811707 L5.05523682,7.14811707 L5.05523682,9.56977843 L7.02728271,9.56977843 C7.34863281,9.56977843 7.61010742,9.83125304 7.61010742,10.1527405 L7.61010742,16.9447632 Z" id="path-1"></path>
    </defs>
    <g id="icon/facebook" stroke="none" stroke-width="1" fill="none" fill-rule="evenodd">
        <mask id="mask-2" fill="white">
            <use xlink:href="#path-1"></use>
        </mask>
        <use id="Shape" fill="#000000" fill-rule="nonzero" xlink:href="#path-1"></use>
        <g id="Group" mask="url(#mask-2)" fill="#323237">
            <g id="color">
                <rect id="Rectangle" x="0" y="0" width="18" height="18"></rect>
            </g>
        </g>
    </g>
</svg>