
<!-- <?xml version="1.0" standalone="no"?>
<!DOCTYPE svg PUBLIC "-//W3C//DTD SVG 20010904//EN"
 "http://www.w3.org/TR/2001/REC-SVG-20010904/DTD/svg10.dtd"> -->
<svg version="1.0" xmlns="http://www.w3.org/2000/svg"
 width="1000.000000pt" height="242.000000pt" viewBox="0 0 1000.000000 242.000000"
 preserveAspectRatio="xMidYMid meet">

<g transform="translate(0.000000,242.000000) scale(0.100000,-0.100000)"
fill="#000000" stroke="none">
<path d="M2422 2407 c-5 -6 -55 -91 -112 -187 -57 -96 -240 -403 -407 -683
-167 -279 -313 -527 -324 -552 -11 -24 -33 -110 -49 -191 -35 -173 -34 -181
50 -231 91 -55 99 -52 187 84 41 64 88 144 103 178 65 140 612 1546 607 1559
-9 23 -43 38 -55 23z"/>
<path d="M2862 2395 c-9 -19 -12 -314 -12 -1185 0 -871 3 -1166 12 -1185 18
-39 59 -31 75 15 17 50 17 2290 0 2340 -16 46 -57 54 -75 15z"/>
<path d="M5719 2343 c-6 -16 -87 -235 -180 -488 -93 -253 -177 -471 -187 -485
-11 -14 -33 -29 -51 -34 -23 -7 -31 -15 -31 -32 l0 -24 140 0 140 0 0 35 0 35
-55 -6 c-30 -4 -55 -3 -54 2 0 5 19 65 43 134 l42 125 194 7 c107 4 197 4 201
0 14 -16 69 -185 69 -212 0 -31 -39 -70 -71 -70 -14 0 -19 -7 -19 -25 l0 -25
175 0 175 0 0 35 0 36 -48 -7 -49 -6 -16 66 c-9 36 -93 262 -188 503 -94 241
-174 444 -176 451 -9 23 -43 13 -54 -15z m181 -670 c0 -2 -79 -3 -175 -3 -96
0 -175 2 -175 4 0 5 102 295 135 381 14 39 28 77 31 85 4 11 184 -446 184
-467z"/>
<path d="M9243 2355 c-141 -31 -267 -136 -332 -277 -48 -102 -64 -176 -64
-293 -1 -207 82 -368 236 -459 127 -75 324 -87 497 -31 47 16 112 31 145 34
l60 6 5 165 c6 188 18 227 78 244 24 7 32 14 32 33 l0 23 -172 -2 -173 -3 0
-30 c0 -30 0 -30 53 -27 l52 3 0 -170 0 -170 -52 -24 c-169 -79 -344 -57 -466
57 -96 90 -145 221 -146 386 0 216 91 383 252 458 78 37 200 38 280 3 94 -42
182 -164 182 -253 0 -13 8 -18 30 -18 l30 0 0 175 0 175 -45 0 -46 0 7 -35 c3
-19 4 -35 1 -35 -2 0 -29 11 -60 25 -113 52 -259 67 -384 40z"/>
<path d="M3230 2315 l0 -35 53 0 52 0 -3 -442 c-2 -411 -4 -445 -21 -468 -10
-14 -32 -29 -50 -34 -23 -7 -31 -15 -31 -32 l0 -24 170 0 170 0 0 35 0 35 -57
-6 -56 -7 6 84 c4 46 7 148 7 227 l0 142 271 0 270 0 -3 -204 c-3 -228 -7
-239 -74 -252 -27 -5 -34 -11 -34 -30 l0 -24 176 0 175 0 -3 33 -3 32 -53 -3
-53 -4 3 450 3 450 24 26 c13 14 35 26 50 28 20 2 26 8 26 28 l0 25 -170 0
-170 0 -3 -32 -3 -33 55 0 56 0 0 -210 0 -210 -270 0 -270 0 0 190 c0 189 0
191 25 215 13 14 36 25 50 25 21 0 25 5 25 30 l0 30 -170 0 -170 0 0 -35z"/>
<path d="M4417 2343 c-4 -3 -7 -19 -7 -35 0 -27 1 -28 55 -28 l56 0 -3 -449
c-3 -424 -4 -450 -22 -470 -10 -11 -34 -23 -52 -27 -27 -5 -34 -11 -34 -30 l0
-24 395 0 395 0 0 43 c0 24 3 92 7 150 l6 107 -26 0 c-23 0 -26 -5 -32 -52 -4
-29 -14 -66 -22 -83 -44 -88 -95 -105 -320 -105 l-163 0 0 229 0 230 45 6 c24
4 78 6 120 3 89 -4 115 -23 124 -90 5 -35 10 -44 29 -46 l22 -3 0 160 0 161
-31 0 -32 0 6 -65 6 -66 -142 3 -142 3 0 176 c0 200 6 222 64 240 21 6 89 9
158 7 104 -3 126 -6 149 -24 48 -35 67 -70 72 -129 4 -50 7 -55 29 -55 l24 0
-3 133 -3 132 -361 3 c-198 1 -363 -1 -367 -5z"/>
<path d="M6317 2344 c-4 -4 -7 -20 -7 -36 0 -27 1 -28 55 -28 l56 0 -3 -449
c-3 -424 -4 -450 -22 -470 -10 -11 -34 -23 -52 -27 -27 -5 -34 -11 -34 -30 l0
-24 378 0 379 0 6 151 c4 83 4 155 1 160 -3 5 -14 9 -24 9 -15 0 -20 -10 -25
-57 -8 -68 -33 -130 -63 -156 -41 -37 -91 -46 -254 -47 l-158 0 0 428 c0 252
4 442 10 463 10 35 34 55 75 61 14 2 20 11 20 28 l0 25 -166 3 c-91 1 -168 -1
-172 -4z"/>
<path d="M7197 2344 c-4 -4 -7 -20 -7 -36 0 -27 1 -28 55 -28 l55 0 0 -432 c0
-392 -2 -436 -18 -468 -13 -27 -26 -37 -54 -44 -30 -8 -38 -14 -38 -33 l0 -23
176 0 175 0 -3 33 -3 32 -52 -3 -53 -4 0 436 c0 482 2 499 57 511 50 12 54 15
51 37 -3 23 -5 23 -169 26 -91 1 -168 -1 -172 -4z"/>
<path d="M7710 2315 l0 -35 50 0 51 0 -3 -443 c-3 -490 -3 -488 -68 -502 -23
-5 -30 -12 -30 -31 l0 -24 141 0 140 0 -3 33 -3 32 -51 -3 -52 -4 -4 399 c-2
219 -3 399 -2 401 1 2 149 -195 329 -438 l328 -440 38 0 39 0 0 468 c0 292 4
481 10 504 11 39 34 58 69 58 17 0 21 6 21 30 l0 31 -137 -3 -138 -3 -3 -32
-3 -33 55 0 56 0 0 -402 c-1 -319 -3 -400 -13 -387 -7 8 -154 205 -327 437
l-315 422 -87 0 -88 0 0 -35z"/>
<path d="M1050 2229 c-94 -11 -234 -51 -303 -85 -216 -109 -365 -296 -533
-671 -138 -307 -195 -512 -195 -703 0 -175 33 -281 125 -404 141 -187 307
-286 480 -286 218 0 340 110 426 383 96 303 119 345 217 393 51 26 69 29 149
29 l90 -1 12 60 c6 33 10 62 8 63 -11 12 -174 14 -228 3 -193 -37 -274 -138
-358 -444 -47 -172 -73 -229 -128 -278 -60 -54 -117 -72 -211 -65 -132 9 -234
73 -342 215 -115 152 -135 349 -63 599 76 265 229 600 339 746 119 157 282
269 440 302 269 56 704 -40 975 -215 35 -23 66 -38 67 -34 2 5 17 31 33 59
l29 50 -67 43 c-264 171 -682 275 -962 241z"/>
<path d="M955 1868 c-70 -38 -113 -116 -100 -181 18 -84 84 -137 173 -137 60
0 107 29 139 85 62 109 -20 245 -147 245 -25 -1 -54 -6 -65 -12z"/>
<path d="M1494 1866 c-17 -8 -44 -31 -60 -52 -25 -32 -29 -46 -29 -100 0 -70
17 -102 75 -141 70 -49 186 -20 229 57 43 76 21 169 -51 223 -35 26 -121 33
-164 13z"/>
<path d="M2276 1724 l-26 -65 45 -52 c60 -68 119 -188 141 -284 14 -63 15 -89
7 -144 -20 -129 -98 -251 -194 -304 -52 -29 -58 -30 -185 -30 l-131 0 -27 -58
c-15 -32 -26 -60 -24 -62 13 -13 196 -24 255 -15 136 19 210 58 303 156 162
174 186 419 65 669 -41 84 -171 255 -194 255 -5 0 -21 -30 -35 -66z"/>
<path d="M624 1382 c-55 -26 -87 -73 -92 -137 -7 -80 41 -149 121 -175 69 -22
159 18 190 83 21 44 22 119 2 157 -40 76 -141 109 -221 72z"/>
<path d="M5987 1149 c-127 -30 -196 -113 -205 -246 -4 -64 -1 -79 22 -127 38
-77 86 -114 276 -211 217 -111 270 -163 270 -264 0 -160 -191 -242 -364 -157
-84 41 -128 102 -150 209 -5 22 -12 27 -37 27 -30 0 -31 -2 -25 -31 3 -17 6
-89 6 -160 l0 -129 40 0 c37 0 40 2 40 29 l0 28 48 -22 c73 -35 149 -48 254
-43 83 3 104 8 162 37 109 54 163 147 154 268 -10 133 -68 192 -303 309 -201
100 -258 148 -270 227 -19 125 82 218 221 204 123 -13 204 -95 235 -237 9 -43
14 -50 35 -50 l24 0 0 170 0 170 -35 0 c-32 0 -35 -2 -35 -31 0 -17 -3 -29 -7
-27 -124 62 -249 82 -356 57z"/>
<path d="M3240 1105 l0 -35 55 0 c46 0 55 -3 55 -17 -1 -10 -9 -209 -19 -442
-21 -469 -20 -465 -89 -486 -24 -7 -32 -15 -32 -32 0 -23 0 -23 145 -23 l145
0 0 35 0 35 -56 -6 -55 -7 7 259 c4 142 9 328 13 413 l6 154 54 -134 c29 -74
117 -277 194 -452 141 -320 155 -343 184 -305 5 7 88 208 184 446 l174 434 6
-54 c4 -29 15 -193 25 -364 17 -305 17 -311 -2 -349 -14 -29 -28 -42 -51 -49
-25 -7 -33 -14 -33 -32 l0 -24 170 0 170 0 0 36 0 35 -55 -6 c-49 -7 -55 -5
-55 11 0 11 -9 168 -20 349 -23 387 -25 510 -7 545 7 14 28 30 47 36 27 9 36
18 38 38 l3 27 -112 -3 -112 -3 -104 -250 c-57 -137 -138 -335 -180 -438 -41
-103 -78 -186 -81 -183 -2 3 -89 200 -192 438 l-187 433 -116 3 -117 3 0 -36z"/>
<path d="M4590 1105 l0 -35 53 0 52 0 -3 -259 c-2 -146 1 -304 7 -360 32 -299
152 -409 436 -399 93 3 119 8 166 30 101 46 168 134 205 265 13 45 18 127 23
365 6 290 7 308 27 335 14 18 32 29 52 31 28 3 32 7 32 33 l0 29 -140 0 -140
0 0 -35 0 -35 50 0 50 0 0 -257 c0 -396 -19 -500 -107 -595 -59 -62 -114 -83
-218 -82 -143 1 -230 60 -276 188 -21 57 -23 80 -27 381 -3 313 -3 321 18 347
11 15 33 28 48 30 21 2 27 8 27 28 l0 25 -167 3 -168 2 0 -35z"/>
<path d="M6637 1133 c-4 -3 -7 -19 -7 -35 0 -27 1 -28 55 -28 l56 0 -3 -443
c-3 -496 -2 -489 -73 -503 -28 -5 -35 -11 -35 -30 l0 -24 395 0 395 0 2 120
c1 66 2 132 2 148 1 22 -3 27 -24 27 -23 0 -25 -5 -31 -57 -8 -71 -39 -122
-93 -151 -37 -19 -59 -22 -223 -25 l-183 -4 0 231 0 230 35 7 c19 3 73 4 119
3 100 -5 122 -19 134 -89 6 -36 12 -46 30 -48 22 -3 22 -3 22 157 l0 161 -30
0 -30 0 0 -65 0 -65 -140 0 -140 0 0 170 c0 258 6 265 228 259 102 -3 125 -7
149 -25 37 -27 73 -99 73 -146 0 -34 3 -38 25 -38 l25 0 0 113 c0 61 -3 122
-6 135 l-6 22 -357 0 c-197 0 -361 -3 -364 -7z"/>
<path d="M7547 1133 c-4 -3 -7 -19 -7 -35 0 -27 1 -28 55 -28 l55 0 0 -314 c0
-429 19 -519 131 -620 73 -66 127 -81 285 -81 130 0 132 0 199 35 111 56 179
158 206 307 6 29 13 186 17 349 7 295 7 296 31 315 13 10 34 19 47 19 20 0 24
5 24 30 l0 31 -137 -3 -138 -3 -3 -32 -3 -33 53 0 54 0 -3 -287 c-2 -159 -8
-316 -14 -351 -22 -142 -72 -223 -167 -269 -49 -24 -68 -28 -142 -27 -100 0
-155 21 -212 79 -78 79 -98 190 -98 546 0 294 6 319 81 319 14 0 19 7 19 30
l0 30 -163 0 c-90 0 -167 -3 -170 -7z"/>
<path d="M8740 1105 l0 -35 50 0 50 0 0 -74 c0 -41 -7 -236 -16 -433 -17 -400
-21 -420 -81 -437 -25 -7 -33 -14 -33 -32 l0 -24 145 0 145 0 0 35 0 35 -61
-7 -61 -6 5 29 c3 16 9 177 13 357 3 181 9 352 13 380 l6 52 19 -50 c27 -71
202 -480 289 -675 65 -145 77 -165 97 -165 22 0 38 36 200 437 97 241 179 440
181 443 6 5 40 -540 42 -661 0 -39 -5 -84 -12 -101 -12 -29 -46 -53 -76 -53
-9 0 -15 -10 -15 -25 l0 -25 176 0 175 0 -3 33 c-3 32 -3 32 -58 32 l-54 0
-23 395 c-13 217 -22 417 -20 443 5 58 33 100 73 107 23 4 29 10 29 30 0 25 0
25 -110 28 l-110 2 -142 -342 c-78 -189 -159 -387 -180 -440 -21 -54 -40 -98
-43 -98 -3 0 -10 12 -16 28 -6 15 -91 213 -189 440 l-178 412 -113 0 -114 0 0
-35z"/>
<path d="M465 826 c-43 -18 -91 -77 -99 -120 -8 -44 7 -104 35 -140 58 -74
188 -79 251 -9 24 26 48 87 48 121 0 16 -10 48 -23 72 -40 75 -136 109 -212
76z"/>
<path d="M1453 519 c-53 -15 -97 -68 -117 -138 -35 -123 -109 -240 -200 -312
-31 -25 -43 -40 -35 -43 87 -29 166 -33 245 -12 160 42 293 186 311 333 13
113 -94 204 -204 172z"/>
</g>
</svg>
