<svg width="97" height="56" viewBox="0 0 97 56" xmlns="http://www.w3.org/2000/svg"><title>Group 6</title><g fill="none" fill-rule="evenodd" opacity=".3"><g fill-opacity=".54" fill="#000"><path d="M36.408 2.05c2.855-.984 5.973.53 6.952 3.373l10.63 30.87c.98 2.843-.547 5.956-3.402 6.94l-30.99 10.67c-2.854.983-5.973-.53-6.952-3.375l-10.63-30.87c-.98-2.843.547-5.956 3.402-6.94l30.99-10.67zM35.864.47L4.874 11.14C1.14 12.428-.85 16.486.432 20.206l10.63 30.87c1.28 3.72 5.345 5.692 9.08 4.406l30.99-10.67c3.735-1.286 5.724-5.344 4.443-9.063l-10.63-30.87C43.666 1.157 39.6-.816 35.866.47z"/><path d="M32.778 34.3l2.122 5.69 3.446-1.253c.403-.147.89.077 1.034.475.145.398-.084.883-.487 1.03l-4.206 1.53-4.117 1.498c-.402.147-.89-.077-1.034-.475-.145-.398.084-.882.487-1.03l3.356-1.22-2.123-5.69c-4.843 1.31-9.974-1.23-11.714-6.01l-.08-.22c-.145-.398.084-.882.487-1.03.403-.146.89.078 1.034.476l.065.178c1.512 4.16 6.137 6.284 10.33 4.857l.09-.032.09-.033c4.19-1.575 6.412-6.19 4.882-10.394l-.05-.133c-.143-.398.04-.866.488-1.03.403-.146.874.034 1.035.476l.048.132c1.755 4.822-.57 10.128-5.185 12.208zm-9.43-6.838l-2.48-6.813c-1.08-2.965.496-6.295 3.494-7.386 2.998-1.09 6.345.447 7.423 3.41l2.496 6.858c1.08 2.964-.495 6.293-3.493 7.385-2.998 1.09-6.36-.49-7.44-3.455zm1.52-.554c.773 2.124 3.163 3.258 5.355 2.46 2.193-.798 3.31-3.158 2.52-5.326l-2.48-6.813c-.772-2.125-3.16-3.26-5.354-2.462-2.193.8-3.31 3.16-2.52 5.327l2.478 6.813z"/></g><path d="M88.167 1H51.91C47.543 1 44 4.53 44 8.883v36.13c0 4.352 3.542 7.882 7.91 7.882H88.17c4.37 0 7.91-3.53 7.91-7.883V8.882C96.08 4.53 92.54 1 88.17 1z" fill="#FFF"/><g fill="#000" fill-opacity=".54"><path d="M86.626 43.18h-33.41c-.464 0-.84-.374-.84-.835V30.997c0-.255.12-.497.318-.655l7.134-5.615c.302-.236.728-.238 1.03-.006l11.03 8.51 4.963-3.61c.313-.224.746-.21 1.042.043l9.28 7.955c.186.158.292.39.292.632v4.093c0 .463-.375.837-.838.837zm-32.573-1.67h31.735v-2.876l-8.485-7.274-4.935 3.587c-.3.217-.712.212-1.007-.015l-11.01-8.49-6.297 4.96V41.51zM80.324 22.562c-3.066 0-5.56-2.485-5.56-5.54 0-3.053 2.494-5.537 5.56-5.537 3.066 0 5.56 2.485 5.56 5.538 0 3.054-2.494 5.54-5.56 5.54zm0-9.407c-2.14 0-3.884 1.736-3.884 3.87 0 2.13 1.743 3.868 3.884 3.868 2.14 0 3.884-1.736 3.884-3.87 0-2.132-1.743-3.868-3.884-3.868z"/><path d="M86.39 5.197c3.02 0 5.476 2.447 5.476 5.455V43.3c0 3.007-2.456 5.454-5.475 5.454H53.616c-3.02 0-5.475-2.447-5.475-5.454V10.652c0-3.008 2.456-5.454 5.475-5.454H86.39zm0-1.67H53.616c-3.95 0-7.15 3.19-7.15 7.124v32.65c0 3.934 3.2 7.123 7.15 7.123h32.777c3.95 0 7.15-3.19 7.15-7.123V10.652c0-3.935-3.2-7.124-7.15-7.124z"/></g></g></svg>
