<?xml version="1.0" encoding="UTF-8"?>
<svg width="18px" height="18px" viewBox="0 0 18 18" version="1.1" xmlns="http://www.w3.org/2000/svg" xmlns:xlink="http://www.w3.org/1999/xlink">
    <title>menu</title>
    <defs>
        <rect id="path-1" x="0" y="0" width="18" height="18"></rect>
    </defs>
    <g id="Page-1" stroke="none" stroke-width="1" fill="none" fill-rule="evenodd">
        <g id="menu">
            <mask id="mask-2" fill="white">
                <use xlink:href="#path-1"></use>
            </mask>
            <g id="Rectangle"></g>
            <path d="M17.25,14.505 C17.6640015,14.505 18,14.8409985 18,15.255 C18,15.6690015 17.6640015,16.005 17.25,16.005 L0.75,16.005 C0.335998547,16.005 0,15.6690015 0,15.255 C0,14.8409985 0.335998547,14.505 0.75,14.505 L17.25,14.505 Z M17.25,8.7525 C17.6640015,8.7525 18,9.08849855 18,9.5025 C18,9.91650145 17.6640015,10.2525 17.25,10.2525 L0.75,10.2525 C0.335998547,10.2525 0,9.91650145 0,9.5025 C0,9.08849855 0.335998547,8.7525 0.75,8.7525 L17.25,8.7525 Z M17.25,3 C17.6640015,3 18,3.33599855 18,3.75 C18,4.16400145 17.6640015,4.5 17.25,4.5 L0.75,4.5 C0.335998547,4.5 0,4.16400145 0,3.75 C0,3.33599855 0.335998547,3 0.75,3 L17.25,3 Z" id="path-1" fill="#222222" fill-rule="nonzero" mask="url(#mask-2)"></path>
        </g>
    </g>
</svg>